<svg width="400" height="400" viewBox="0 0 400 400" fill="none" xmlns="http://www.w3.org/2000/svg">
  <rect x="42" y="50" width="316" height="300" rx="42" fill="#F0EDFF"/>
  <circle cx="96" cy="104" r="18" fill="#6A5BE2" opacity="0.16"/>
  <circle cx="315" cy="102" r="26" fill="#3FC493" opacity="0.20"/>
  <rect x="88" y="158" width="224" height="138" rx="24" fill="white"/>
  <path d="M105 190L126 158H274L295 190H105Z" fill="#6A5BE2"/>
  <path d="M105 190H295V204C295 220.569 281.569 234 265 234C248.431 234 235 220.569 235 204C235 220.569 221.569 234 205 234C188.431 234 175 220.569 175 204C175 220.569 161.569 234 145 234H135C118.431 234 105 220.569 105 204V190Z" fill="#8B7EF0"/>
  <rect x="126" y="240" width="148" height="38" rx="14" fill="#F7F7FB"/>
  <rect x="145" y="251" width="110" height="8" rx="4" fill="#DADDEB"/>
  <rect x="145" y="265" width="76" height="8" rx="4" fill="#DADDEB"/>
  <circle cx="302" cy="258" r="40" fill="#3FC493"/>
  <path d="M284 258L297 271L321 245" stroke="white" stroke-width="10" stroke-linecap="round" stroke-linejoin="round"/>
  <rect x="78" y="106" width="92" height="50" rx="18" fill="white"/>
  <path d="M96 132H151" stroke="#6A5BE2" stroke-width="8" stroke-linecap="round"/>
  <path d="M96 118H132" stroke="#DADDEB" stroke-width="8" stroke-linecap="round"/>
  <path d="M112 315H288" stroke="#DADDEB" stroke-width="12" stroke-linecap="round"/>
</svg>
